<svg height="512" viewBox="0 0 64 64" width="512" xmlns="http://www.w3.org/2000/svg"><g id="Filled_outline" data-name="Filled outline"><path d="m45 61h-32l-2-35h36z" fill="#50b4f8"/><path d="m12.657 55 .343 6h32l.343-6z" fill="#50b4f8"/><path d="m41 33h-4l12-30h4z" fill="#2d75bb"/><circle cx="45" cy="18" fill="#c8d952" r="6"/><path d="m12.657 55h32.686l1.262-22.087c-.389.051-2.133.087-2.6.087-4.836 0-3.164-3-8-3s-5.174 3-10.007 3-4.833-3-9.667-3a8.205 8.205 0 0 0 -5.006 1.607z" fill="#db527d"/><path d="m11 25a1 1 0 0 0 -1 1.057l2 35a1 1 0 0 0 1 .943h32a1 1 0 0 0 1-.943l2-35a1 1 0 0 0 -1-1.057h-1.721l.006-.014a6.986 6.986 0 0 0 4.735-11.853l3.908-9.761a1 1 0 0 0 -.928-1.372h-4a1 1 0 0 0 -.928.629l-3.356 8.385a6.986 6.986 0 0 0 -4.736 11.853l-.855 2.133zm1.226 4.925-.167-2.925h26.264l-.849 2.117a9.2 9.2 0 0 0 -1.474-.117 9.807 9.807 0 0 0 -5.5 1.635 7.81 7.81 0 0 1 -4.507 1.365 7.017 7.017 0 0 1 -4.306-1.35 9 9 0 0 0 -5.361-1.65 8.6 8.6 0 0 0 -4.1.925zm31.83 30.075h-30.112l-.228-4h30.568zm1.885-33-.283 4.965c-.584.02-1.309.035-1.658.035a6.6 6.6 0 0 1 -1.466-.142l1.945-4.858zm-4.661-2 .348-.869a6.991 6.991 0 0 0 1.592.631l-.095.238zm8.4-21h1.845l-3.15 7.869a6.991 6.991 0 0 0 -1.592-.631zm-4.68 9a5 5 0 1 1 -5 5 5.006 5.006 0 0 1 5-5zm-4.522 14h1.846l-1.545 3.86-.091-.086a6.708 6.708 0 0 0 -1.313-1.023zm3.522 7c.165 0 .873-.009 1.543-.029l-1.143 20.029h-30.8l-1.247-21.856a6.731 6.731 0 0 1 3.973-1.144 7.017 7.017 0 0 1 4.306 1.35 9 9 0 0 0 5.361 1.65 9.811 9.811 0 0 0 5.507-1.635 7.809 7.809 0 0 1 4.5-1.365 3.863 3.863 0 0 1 3.312 1.226 5.789 5.789 0 0 0 4.688 1.774z"/><path d="m15 50h2v2h-2z"/><path d="m19 47h2v2h-2z"/></g></svg>