<?xml version="1.0" encoding="iso-8859-1"?>
<!-- Generator: Adobe Illustrator 19.0.0, SVG Export Plug-In . SVG Version: 6.00 Build 0)  -->
<svg version="1.1" id="Capa_1" xmlns="http://www.w3.org/2000/svg" xmlns:xlink="http://www.w3.org/1999/xlink" x="0px" y="0px"
	 viewBox="0 0 424 424" style="enable-background:new 0 0 424 424;" xml:space="preserve">
<path style="fill:#B9B9B9;" d="M268.025,416h-112l-29.992-187.44c-1.336-8.36-2.008-16.814-2.008-25.28V168h176v35.28
	c0,8.466-0.672,16.92-2.008,25.28L268.025,416z"/>
<path style="fill:#62666A;" d="M124.025,160h176v32h-176V160z"/>
<g>
	<path style="fill:#D9D9D9;" d="M300.617,168H123.433c-8.672-0.166-15.569-7.328-15.408-16c-0.161-8.672,6.736-15.834,15.408-16
		h177.184c8.672,0.166,15.569,7.328,15.408,16C316.186,160.672,309.289,167.834,300.617,168z"/>
	<path style="fill:#D9D9D9;" d="M172.425,370.504c-0.864-2.632-4.272-13.416-5.112-16.176l15.312-4.656
		c0.8,2.696,4.144,13.248,5,15.824L172.425,370.504z"/>
	<path style="fill:#D9D9D9;" d="M164.313,344c-10.623-41.799-18.712-84.202-24.224-126.976l15.872-1.968
		c5.414,42,13.354,83.635,23.776,124.68L164.313,344z"/>
	<path style="fill:#D9D9D9;" d="M172.025,8h80v56h-80V8z"/>
</g>
<path style="fill:#B9B9B9;" d="M212.321,47.704c48.765,0,88.296,39.531,88.296,88.296l0,0H124.025l0,0
	C124.025,87.235,163.557,47.704,212.321,47.704L212.321,47.704z"/>
<path d="M308.289,129.432c-2.213-32.11-20.323-60.991-48.264-76.968V8c0-4.418-3.582-8-8-8h-80c-4.418,0-8,3.582-8,8v44.728
	c-27.561,16.084-45.424,44.718-47.752,76.544c-12.554,4.253-19.283,17.878-15.029,30.432c2.368,6.989,7.819,12.5,14.781,14.944
	v28.632c0.003,8.892,0.709,17.771,2.112,26.552l29.992,187.432c0.621,3.88,3.967,6.734,7.896,6.736h112
	c3.929-0.002,7.275-2.856,7.896-6.736l29.992-187.432c1.403-8.781,2.109-17.66,2.112-26.552v-28.632
	c12.512-4.44,19.056-18.183,14.616-30.696C320.252,137.22,314.993,131.899,308.289,129.432L308.289,129.432z M244.025,16v29.176
	c-20.71-7.345-43.324-7.294-64,0.144V16H244.025z M178.305,63.2c40.217-18.761,88.027-1.367,106.788,38.849
	c3.819,8.188,6.231,16.961,7.132,25.951h-159.8c2.897-28.132,20.301-52.698,45.88-64.76L178.305,63.2z M292.025,203.28
	c-0.002,8.038-0.639,16.063-1.904,24L261.201,408h-98.352l-28.92-180.704c-1.265-7.937-1.902-15.962-1.904-24V176h160V203.28z
	 M300.617,160H123.433c-4.418,0-8-3.582-8-8s3.582-8,8-8h177.184c4.418,0,8,3.582,8,8S305.036,160,300.617,160z"/>
<g>
</g>
<g>
</g>
<g>
</g>
<g>
</g>
<g>
</g>
<g>
</g>
<g>
</g>
<g>
</g>
<g>
</g>
<g>
</g>
<g>
</g>
<g>
</g>
<g>
</g>
<g>
</g>
<g>
</g>
</svg>
