<svg id="Layer_1" enable-background="new 0 0 497.998 497.998" height="512" viewBox="0 0 497.998 497.998" width="512" xmlns="http://www.w3.org/2000/svg"><g><path d="m308.669 455.791-11.921 9.855h-211.832c-22.474 0-40.325-18.194-40.325-40.636v-36.375c0-100.688-9.335-250.247-44.591-356.369h347.937c-23.651 71.191-33.253 146.518-39.268 221.01z" fill="#a5fffa"/><path d="m307.937 32.267c-23.651 71.191-33.253 146.518-39.268 221.01v204.265h40v-204.266c6.015-74.492 15.617-149.819 39.268-221.01h-40z" fill="#6efff7"/><g><g><path d="m326.83 113.221h-306.027c18.33 92.868 23.788 198.427 23.788 275.414v30.462h264.078v-165.821c3.777-46.766 8.969-93.861 18.161-140.055z" fill="#9b4f1d"/></g><path d="m286.83 113.221c-9.192 46.194-14.385 93.289-18.161 140.055v165.821h40v-165.821c3.776-46.766 8.969-93.861 18.161-140.055z" fill="#8f491b"/><g><path d="m460.795 147.197c64.525 90.967 42.988 216.946-48.105 281.382s-217.246 42.928-281.771-48.038z" fill="#fed73a"/><path d="m460.795 147.197-27.716 19.605c48.867 88.715 24.323 201.854-60.389 261.776-29.633 20.961-62.976 32.819-96.701 36.158 46.761 4.632 95.344-6.904 136.701-36.158 91.092-64.435 112.63-190.414 48.105-281.381z" fill="#fc0"/><path d="m435.333 165.208c54.477 76.801 36.229 183.542-40.679 237.944-76.907 54.401-183.796 36.178-238.273-40.623z" fill="#fff1b5"/><g fill="#fed73a"><path d="m384.091 342.74c8.411 11.858 5.604 28.281-6.271 36.681s-28.32 5.596-36.732-6.262-29.652-62.184-17.777-70.584 52.369 28.306 60.78 40.165z"/><path d="m414.441 256.648c14.345 2.446 23.988 16.041 21.539 30.365-2.449 14.325-16.063 23.955-30.408 21.509s-64.998-23.032-62.549-37.357c2.449-14.324 57.073-16.963 71.418-14.517z"/><path d="m414.114 180.218c8.411 11.858 5.604 28.281-6.271 36.681s-62.27 29.611-70.681 17.752z"/><path d="m249.692 373.186c-2.449 14.325 7.194 27.92 21.539 30.365 14.345 2.446 27.958-7.184 30.407-21.509s-.193-68.874-14.538-71.319-34.959 48.138-37.408 62.463z"/><path d="m177.599 347.521c8.411 11.858 24.857 14.662 36.732 6.262s48.632-48.837 40.22-60.696z"/></g><path d="m313.397 251.462c6.862 9.674 4.572 23.071-5.116 29.924-9.687 6.853-23.103 4.565-29.965-5.109z" fill="#fff"/></g></g></g></svg>