<svg id="Capa_1" enable-background="new 0 0 512 512" height="512" viewBox="0 0 512 512" width="512" xmlns="http://www.w3.org/2000/svg"><g><g><g><circle cx="111.407" cy="50.132" fill="#e94444" r="42.626"/></g></g><g><g><path d="m154.028 50.134c0 23.54-19.076 42.626-42.625 42.626-13.912 0-26.262-6.665-34.048-16.964 3.953 1.211 8.147 1.861 12.49 1.861 23.54 0 42.625-19.086 42.625-42.625 0-9.638-3.203-18.525-8.587-25.661 17.455 5.324 30.145 21.567 30.145 40.763z" fill="#d83131"/></g></g><g><g><path d="m441.343 64.949c4.591-6.097.241-14.817-7.391-14.817h-155.711-155.711c-7.632 0-11.982 8.72-7.391 14.817l134.58 178.739c7.102 9.432 10.943 20.919 10.943 32.727v142.876c0 29.921-20.668 56.172-49.931 62.413-.826.176-1.666.346-2.52.508 0 0-22.283 3.183-26.527 22.283h96.557 96.557c-4.244-19.099-26.527-22.283-26.527-22.283-.758-.144-1.506-.294-2.242-.449-29.382-6.192-50.209-32.444-50.209-62.471v-142.877c0-11.807 3.841-23.294 10.943-32.727z" fill="#dff6fd"/></g><g><path d="m441.343 64.949c4.591-6.097.241-14.817-7.391-14.817h-155.711-155.711c-7.632 0-11.982 8.72-7.391 14.817l134.58 178.739c7.102 9.432 10.943 20.919 10.943 32.727v142.876c0 29.921-20.668 56.172-49.931 62.413-.826.176-1.666.346-2.52.508 0 0-22.283 3.183-26.527 22.283h96.557 96.557c-4.244-19.099-26.527-22.283-26.527-22.283-.758-.144-1.506-.294-2.242-.449-29.382-6.192-50.209-32.444-50.209-62.471v-142.877c0-11.807 3.841-23.294 10.943-32.727z" fill="#c8effe"/></g><g><path d="m295.819 276.414v142.875c0 30.028 20.823 56.281 50.212 62.47.731.155 1.481.311 2.24.457 0 0 22.286 3.181 26.527 22.277h-22.77c-2.13-9.589-9.849-11.637-19.144-13.52-18.282-3.704-32.581-12.506-43.717-28.381-8.8-12.544-13.42-28.013-13.42-43.303 0-.074 0-142.875 0-142.875 0-11.81 3.839-23.292 10.942-32.725l131.886-178.736c4.589-6.097.247-14.818-7.386-14.818h22.761c7.633 0 11.984 8.721 7.395 14.818l-134.584 178.736c-7.102 9.433-10.942 20.914-10.942 32.725z" fill="#99e6fc"/></g><g><path d="m420.454 92.688-113.692 150.997c-4.225 5.61-7.302 11.957-9.09 18.657h-38.865l-.408-1.443c-1.826-6.165-4.76-12.005-8.679-17.214l-118.691-157.64c38.576-2.313 77.936 7.054 115.527 15.732 47.589 10.982 99.565 20.722 146.055 4.702 10.017-3.449 19.365-8.142 27.843-13.791z" fill="#e94444"/></g><g><path d="m420.458 92.688s-113.695 150.999-113.697 151.001c-1.98 2.629-3.733 5.457-5.201 8.41-1.397 2.81-2.608 5.87-3.519 8.931-.128.43-.256.878-.366 1.316h-20.074c1.792-6.7 4.863-13.044 9.086-18.657l99.802-135.251c2.057-.603 4.095-1.252 6.125-1.956 10.019-3.456 19.361-8.145 27.844-13.794z" fill="#d83131"/></g><path d="m447.34 69.464c3.846-5.109 4.463-11.838 1.608-17.56-2.854-5.723-8.601-9.277-14.996-9.277h-272.997c-3.634-24.093-24.458-42.627-49.548-42.627-27.643 0-50.133 22.489-50.133 50.133 0 27.643 22.489 50.133 50.133 50.133 6.461 0 12.639-1.231 18.316-3.468 0 0 113.999 151.405 114 151.406 6.068 8.058 9.433 18.106 9.433 28.213v142.875c0 3.909-.406 7.818-1.21 11.643-4.715 22.414-22.646 39.609-45.014 43.879-2.777.444-27.457 5.021-32.575 28.052-.494 2.222.047 4.549 1.472 6.325 1.424 1.776 3.578 2.809 5.855 2.809h116.653c4.146 0 7.506-3.36 7.506-7.506s-3.361-7.506-7.506-7.506c0 0-104.199 0-104.198-.001 5.339-5.239 11.211-6.461 18.158-7.942 32.374-6.904 55.872-36.239 55.872-69.753v-142.876c0-2.197-.131-4.388-.367-6.567h20.88c-.236 2.179-.367 4.371-.367 6.567v142.875c0 33.595 23.622 62.957 56.166 69.816 6.544 1.379 12.902 3.013 17.864 7.881h-28.682c-4.146 0-7.506 3.36-7.506 7.506s3.361 7.506 7.506 7.506h41.136c2.277 0 4.43-1.033 5.855-2.809 1.425-1.777 1.966-4.103 1.472-6.325-3.794-17.067-18.816-25.133-34.551-28.449-25.639-5.404-44.247-28.588-44.247-55.125v-142.876c0-10.082 3.368-20.157 9.433-28.212zm-335.933 15.788c-19.365 0-35.12-15.754-35.12-35.12s15.755-35.12 35.12-35.12c16.788 0 30.847 11.844 34.294 27.614h-23.17c-6.395 0-12.141 3.555-14.996 9.278-2.854 5.722-2.238 12.452 1.608 17.56l11.044 14.668c-2.808.728-5.748 1.12-8.78 1.12zm180.783 169.584h-27.903c-1.494-4.031-3.41-7.882-5.715-11.522-.008-.012-.015-.025-.023-.037-3.259-5.235-7.163-9.855-10.85-14.752-5.974-7.935-98.956-131.421-101.875-135.31 11.01.14 21.999 1.108 32.905 2.594 5.135.7 10.254 1.517 15.358 2.421 5.027.89 9.956 1.846 14.913 2.865 4.061.835 8.026-1.794 8.854-5.855.828-4.062-1.794-8.026-5.856-8.854-25.385-5.154-51.391-9.045-77.36-8.019l-13.502-17.932c-.537-.713-.387-1.388-.167-1.829s.67-.967 1.562-.967h311.421c.893 0 1.342.526 1.562.967s.369 1.116-.168 1.829l-20.077 26.665c-7.845 5.108-16.28 9.245-25.102 12.284-20.321 7.002-42.008 8.847-63.376 7.81-27.222-1.321-54.15-7.094-80.53-13.188-4.045-.934-8.071 1.583-9.005 5.621-.934 4.039 1.582 8.07 5.622 9.005 26.711 6.173 53.693 11.913 81.132 13.468 24.013 1.361 48.186-.756 71.047-8.523.124-.042.247-.085.37-.128l-94.66 125.724c-3.539 4.697-6.535 10.154-8.577 15.663z"/></g></g></svg>